<svg width="1280" height="720" xmlns="http://www.w3.org/2000/svg" xmlns:xlink="http://www.w3.org/1999/xlink" overflow="hidden"><g><rect x="0" y="0" width="1280" height="720" fill="#FFFFFF"/><path d="M451 20.0002C451 13.925 455.925 9 462 9L818 9C824.075 9 829 13.925 829 20.0002L829 63.9998C829 70.075 824.075 75 818 75L462 75C455.925 75 451 70.075 451 63.9998Z" stroke="#000000" stroke-width="2" stroke-miterlimit="8" fill="#F2AA84" fill-rule="evenodd"/><text fill="#FFFFFF" font-family="Times New Roman,Times New Roman_MSFontService,sans-serif" font-weight="700" font-size="33" transform="translate(567.333 54)">HRS Data</text><path d="M451 157C451 150.925 455.925 146 462 146L818 146C824.075 146 829 150.925 829 157L829 201C829 207.075 824.075 212 818 212L462 212C455.925 212 451 207.075 451 201Z" stroke="#000000" stroke-width="2" stroke-miterlimit="8" fill="#F2AA84" fill-rule="evenodd"/><text fill="#FFFFFF" font-family="Times New Roman,Times New Roman_MSFontService,sans-serif" font-weight="700" font-size="33" transform="translate(586.25 191)">Extract</text><path d="M642 75 642 135.632 638 135.632 638 75ZM646 133.632 640 145.632 634 133.632Z"/><path d="M304 283C304 276.925 308.925 272 315 272L482 272C488.075 272 493 276.925 493 283L493 327C493 333.075 488.075 338 482 338L315 338C308.925 338 304 333.075 304 327Z" stroke="#000000" stroke-width="2" stroke-miterlimit="8" fill="#F2AA84" fill-rule="evenodd"/><text fill="#FFFFFF" font-family="Times New Roman,Times New Roman_MSFontService,sans-serif" font-weight="700" font-size="27" transform="translate(350.608 315)">Variable</text><path d="M546 283C546 276.925 550.925 272 557 272L723 272C729.075 272 734 276.925 734 283L734 327C734 333.075 729.075 338 723 338L557 338C550.925 338 546 333.075 546 327Z" stroke="#000000" stroke-width="2" stroke-miterlimit="8" fill="#F2AA84" fill-rule="evenodd"/><text fill="#FFFFFF" font-family="Times New Roman,Times New Roman_MSFontService,sans-serif" font-weight="700" font-size="27" transform="translate(591.64 315)">Variable</text><path d="M63 283C63 276.925 67.925 272 74.0002 272L241 272C247.075 272 252 276.925 252 283L252 327C252 333.075 247.075 338 241 338L74.0002 338C67.925 338 63 333.075 63 327Z" stroke="#000000" stroke-width="2" stroke-miterlimit="8" fill="#F2AA84" fill-rule="evenodd"/><text fill="#FFFFFF" font-family="Times New Roman,Times New Roman_MSFontService,sans-serif" font-weight="700" font-size="27" transform="translate(109.575 315)">Variable</text><path d="M0.0820018-0.661604 475.529 58.2672 475.365 59.5904-0.0820018 0.661604ZM474.617 54.7953 482.065 59.749 473.633 62.7346Z" transform="matrix(-1 0 0 1 640.565 212.5)"/><path d="M0.160404-0.647082 234.722 57.4979 234.401 58.7921-0.160404 0.647082ZM234.23 53.9416 241.032 59.749 232.305 61.7066Z" transform="matrix(-1 0 0 1 640.532 212.5)"/><path d="M641.167 212.5 641.167 265.582 639.833 265.582 639.833 212.5ZM644.5 264.249 640.5 272.249 636.5 264.249Z"/><path d="M640.657 211.852 875.209 268.532 874.896 269.828 640.343 213.148ZM874.696 264.978 881.532 270.746 872.817 272.754Z"/><path d="M640.582 211.838 1116.03 270.767 1115.87 272.09 640.418 213.162ZM1115.12 267.295 1122.56 272.249 1114.13 275.235Z"/><path d="M158.582 337.838 634.029 396.767 633.865 398.09 158.418 339.162ZM633.117 393.295 640.565 398.249 632.133 401.235Z"/><path d="M399.66 337.853 634.222 395.998 633.901 397.292 399.34 339.147ZM633.73 392.442 640.532 398.249 631.805 400.207Z"/><path d="M641.167 338.5 641.167 391.582 639.833 391.582 639.833 338.5ZM644.5 390.249 640.5 398.249 636.5 390.249Z"/><path d="M0.164198-0.64613 234.735 58.9642 234.406 60.2565-0.164198 0.64613ZM234.264 55.4053 241.032 61.2525 232.294 63.1589Z" transform="matrix(-1 0 0 1 881.532 337.5)"/><path d="M0.0820018-0.661604 475.529 58.2672 475.365 59.5904-0.0820018 0.661604ZM474.617 54.7953 482.065 59.749 473.633 62.7346Z" transform="matrix(-1 0 0 1 1122.56 338.5)"/><path d="M267 491 1002.91 491 1002.91 495 267 495ZM269 499 257 493 269 487ZM1000.91 487 1012.91 493 1000.91 499Z" fill="#C00000"/><text font-family="Times New Roman,Times New Roman_MSFontService,sans-serif" font-weight="400" font-size="27" transform="translate(269.84 480)">0</text><text font-family="Times New Roman,Times New Roman_MSFontService,sans-serif" font-weight="400" font-size="27" transform="translate(985.897 480)">27</text><path d="M787 281.167C787 275 792 270 798.167 270L964.833 270C971 270 976 275 976 281.167L976 325.833C976 332 971 337 964.833 337L798.167 337C792 337 787 332 787 325.833Z" stroke="#000000" stroke-width="2" stroke-miterlimit="8" fill="#F2AA84" fill-rule="evenodd"/><text fill="#FFFFFF" font-family="Times New Roman,Times New Roman_MSFontService,sans-serif" font-weight="700" font-size="27" transform="translate(832.672 314)">Variable</text><path d="M1028 283C1028 276.925 1032.92 272 1039 272L1206 272C1212.08 272 1217 276.925 1217 283L1217 327C1217 333.075 1212.08 338 1206 338L1039 338C1032.92 338 1028 333.075 1028 327Z" stroke="#000000" stroke-width="2" stroke-miterlimit="8" fill="#F2AA84" fill-rule="evenodd"/><text fill="#FFFFFF" font-family="Times New Roman,Times New Roman_MSFontService,sans-serif" font-weight="700" font-size="27" transform="translate(1073.7 315)">Variable</text><path d="M451 407C451 400.925 455.925 396 462 396L818 396C824.075 396 829 400.925 829 407L829 451C829 457.075 824.075 462 818 462L462 462C455.925 462 451 457.075 451 451Z" stroke="#000000" stroke-width="2" stroke-miterlimit="8" fill="#F2AA84" fill-rule="evenodd"/><text fill="#FFFFFF" font-family="Times New Roman,Times New Roman_MSFontService,sans-serif" font-weight="700" font-size="33" transform="translate(600.467 441)">Score</text><path d="M451 532C451 525.925 455.925 521 462 521L818 521C824.075 521 829 525.925 829 532L829 576C829 582.075 824.075 587 818 587L462 587C455.925 587 451 582.075 451 576Z" stroke="#000000" stroke-width="2" stroke-miterlimit="8" fill="#F2AA84" fill-rule="evenodd"/><text fill="#FFFFFF" font-family="Times New Roman,Times New Roman_MSFontService,sans-serif" font-weight="700" font-size="33" transform="translate(583.417 566)">Classify</text><path d="M546 634C546 627.925 550.925 623 557 623L723 623C729.075 623 734 627.925 734 634L734 678C734 684.075 729.075 689 723 689L557 689C550.925 689 546 684.075 546 678Z" stroke="#000000" stroke-width="2" stroke-miterlimit="8" fill="#F2AA84" fill-rule="evenodd"/><text fill="#FFFFFF" font-family="Times New Roman,Times New Roman_MSFontService,sans-serif" font-weight="700" font-size="20" transform="translate(575.917 651)">Mild Cognitive</text><text fill="#FFFFFF" font-family="Times New Roman,Times New Roman_MSFontService,sans-serif" font-weight="700" font-size="20" transform="translate(588.33 675)">Impairment</text><path d="M787 634C787 627.925 791.925 623 798 623L965 623C971.075 623 976 627.925 976 634L976 678C976 684.075 971.075 689 965 689L798 689C791.925 689 787 684.075 787 678Z" stroke="#000000" stroke-width="2" stroke-miterlimit="8" fill="#F2AA84" fill-rule="evenodd"/><text fill="#FFFFFF" font-family="Times New Roman,Times New Roman_MSFontService,sans-serif" font-weight="700" font-size="20" transform="translate(839.949 663)">Dementia</text><path d="M304 634C304 627.925 308.925 623 315 623L482 623C488.075 623 493 627.925 493 634L493 678C493 684.075 488.075 689 482 689L315 689C308.925 689 304 684.075 304 678Z" stroke="#000000" stroke-width="2" stroke-miterlimit="8" fill="#F2AA84" fill-rule="evenodd"/><text fill="#FFFFFF" font-family="Times New Roman,Times New Roman_MSFontService,sans-serif" font-weight="700" font-size="20" transform="translate(321.468 663)">Normal Cognitio</text><text fill="#FFFFFF" font-family="Times New Roman,Times New Roman_MSFontService,sans-serif" font-weight="700" font-size="20" transform="translate(465.301 663)">n</text><path d="M0.0994519-0.659207 234.54 34.7098 234.341 36.0283-0.0994519 0.659207ZM233.719 31.2149 241.032 36.3636 232.525 39.1254Z" transform="matrix(-1 0 0 1 640.532 587.5)"/><path d="M641.167 587.5 641.167 617.197 639.833 617.197 639.833 587.5ZM644.5 615.864 640.5 623.864 636.5 615.864Z"/><path d="M640.599 586.841 875.04 622.21 874.841 623.528 640.401 588.159ZM874.219 618.715 881.532 623.864 873.025 626.625Z"/></g></svg>